# xmcd
#
# Track frame offsets: 
#        150
#        4512
#        23437
#        43615
#        64842
#        80837
#        97205
#        115732
#        137490
#        156765
#        178005
#        197137
#        215727
#        233542
#        252547
#        261000
#        279615
#        292892
#        311302
#
# Disc length: 4418 seconds
#
# Revision: 2
# Processed by: cddbd v1.5.2PL0 Copyright (c) Steve Scherf et al.
# Submitted via: ExactAudioCopy v1.3
#
DISCID=08114013
DTITLE=M.O.P. - First Family 4 Life
DYEAR=1998
DGENRE=Hip-Hop
TTITLE0=Billy Skit
TTITLE1=Breakin' The Rules
TTITLE2=Alarm Blaze  (feat. Teflon and Jay-Z)
TTITLE3=Blood Sweat And Tears
TTITLE4=Down 4 Whateva (feat. O.C.)
TTITLE5=Facing Off
TTITLE6=My Kinda Nigga Part II (feat. Heather B)
TTITLE7=I Luv (feat. Freddie Foxxx)
TTITLE8=Salute Part II (feat. Gang Starr)
TTITLE9=Ride With Us
TTITLE10=Handle Ur Bizness (DJ Premier Remix)
TTITLE11=Fly Nigga Hill Figga
TTITLE12=What The Future Holds
TTITLE13=Downtown Swinga '98
TTITLE14=Fame Skit
TTITLE15=Brooklyn-Jersey Get Wild (feat. Treach)
TTITLE16=New York Salute
TTITLE17=Way Of The World (Bonus Track)
TTITLE18=Move Something (Bonus Track)
EXTD=
EXTT0=
EXTT1=
EXTT2=
EXTT3=
EXTT4=
EXTT5=
EXTT6=
EXTT7=
EXTT8=
EXTT9=
EXTT10=
EXTT11=
EXTT12=
EXTT13=
EXTT14=
EXTT15=
EXTT16=
EXTT17=
EXTT18=
PLAYORDER=
